<svg xmlns="http://www.w3.org/2000/svg" viewBox="0 0 861 256" width="861" height="256" role="img" aria-label="NivaroOS"><title>NivaroOS</title><rect width="256" height="256" rx="60" fill="#2563EB"/><path d="M80 194V110L176 194V110" fill="none" stroke="#FFFFFF" stroke-width="32" stroke-linecap="round" stroke-linejoin="round"/><circle cx="176" cy="62" r="17" fill="#7DF9C5"/><path transform="translate(312 170.6)" d="M25.20 0L9.60 0L9.60-85.20L27.84-85.20L64.56-21.12L64.56-85.20L80.16-85.20L80.16 0L61.44 0L25.20-62.28L25.20 0ZM112.08 0L96.72 0L96.72-64.08L112.08-64.08L112.08 0ZM112.44-72.60L96.48-72.60L96.48-86.28L112.44-86.28L112.44-72.60ZM163.32 0L145.08 0L121.68-64.08L137.88-64.08L154.20-15.48L170.52-64.08L186.72-64.08L163.32 0ZM214.80 1.44L214.80 1.44Q204.72 1.44 198.60-3.18Q192.48-7.80 192.48-16.08L192.48-16.08Q192.48-24.36 197.64-29.04Q202.80-33.72 213.36-35.76L213.36-35.76L234.60-39.96Q234.60-46.80 231.48-50.22Q228.36-53.64 222.24-53.64L222.24-53.64Q216.72-53.64 213.54-51.06Q210.36-48.48 209.16-43.68L209.16-43.68L193.56-44.40Q195.48-54.60 202.92-60.06Q210.36-65.52 222.24-65.52L222.24-65.52Q235.92-65.52 242.94-58.62Q249.96-51.72 249.96-38.88L249.96-38.88L249.96-15.60Q249.96-13.08 250.86-12.12Q251.76-11.16 253.56-11.16L253.56-11.16L255.60-11.16L255.60 0Q254.88 0.24 253.26 0.36Q251.64 0.48 249.96 0.48L249.96 0.48Q246 0.48 242.88-0.78Q239.76-2.04 238.08-5.22Q236.40-8.40 236.40-13.92L236.40-13.92L237.72-12.96Q236.76-8.76 233.58-5.46Q230.40-2.16 225.60-0.36Q220.80 1.44 214.80 1.44ZM217.92-9.72L217.92-9.72Q223.08-9.72 226.80-11.76Q230.52-13.80 232.56-17.40Q234.60-21 234.60-25.92L234.60-25.92L234.60-29.52L218.04-26.16Q212.88-25.08 210.66-22.98Q208.44-20.88 208.44-17.52L208.44-17.52Q208.44-13.80 210.90-11.76Q213.36-9.72 217.92-9.72ZM279.72 0L264.36 0L264.36-64.08L278.76-64.08L279.36-46.32L278.04-46.56Q279.48-55.80 283.50-59.94Q287.52-64.08 294.48-64.08L294.48-64.08L300.36-64.08L300.36-50.88L294.36-50.88Q289.44-50.88 286.20-49.44Q282.96-48 281.34-44.94Q279.72-41.88 279.72-36.96L279.72-36.96L279.72 0ZM339.84 1.44L339.84 1.44Q330.36 1.44 323.22-2.70Q316.08-6.84 312.18-14.40Q308.28-21.96 308.28-32.04L308.28-32.04Q308.28-42.24 312.18-49.74Q316.08-57.24 323.22-61.38Q330.36-65.52 339.84-65.52L339.84-65.52Q349.32-65.52 356.40-61.38Q363.48-57.24 367.38-49.74Q371.28-42.24 371.28-32.04L371.28-32.04Q371.28-21.96 367.38-14.40Q363.48-6.84 356.40-2.70Q349.32 1.44 339.84 1.44ZM339.84-11.04L339.84-11.04Q347.28-11.04 351.30-16.56Q355.32-22.08 355.32-32.04L355.32-32.04Q355.32-41.88 351.30-47.46Q347.28-53.04 339.84-53.04L339.84-53.04Q332.40-53.04 328.32-47.46Q324.24-41.88 324.24-32.04L324.24-32.04Q324.24-22.08 328.32-16.56Q332.40-11.04 339.84-11.04ZM421.20 1.92L421.20 1.92Q409.08 1.92 400.38-3.42Q391.68-8.76 387-18.72Q382.32-28.68 382.32-42.48L382.32-42.48Q382.32-56.28 387-66.30Q391.68-76.32 400.38-81.72Q409.08-87.12 421.20-87.12L421.20-87.12Q433.44-87.12 442.14-81.72Q450.84-76.32 455.52-66.30Q460.20-56.28 460.20-42.48L460.20-42.48Q460.20-28.68 455.52-18.72Q450.84-8.76 442.14-3.42Q433.44 1.92 421.20 1.92ZM421.20-8.16L421.20-8.16Q430.08-8.16 436.38-12.24Q442.68-16.32 446.04-24Q449.40-31.68 449.40-42.48L449.40-42.48Q449.40-53.28 446.04-61.02Q442.68-68.76 436.38-72.90Q430.08-77.04 421.20-77.04L421.20-77.04Q412.44-77.04 406.14-72.90Q399.84-68.76 396.48-61.02Q393.12-53.28 393.12-42.48L393.12-42.48Q393.12-31.68 396.48-24Q399.84-16.32 406.14-12.24Q412.44-8.16 421.20-8.16ZM504.48 1.92L504.48 1.92Q494.64 1.92 487.32-1.80Q480-5.52 475.74-12.06Q471.48-18.60 470.76-27.24L470.76-27.24L481.56-27.96Q482.40-21.60 485.28-17.16Q488.16-12.72 493.02-10.44Q497.88-8.16 504.72-8.16L504.72-8.16Q510.72-8.16 514.92-9.72Q519.12-11.28 521.34-14.28Q523.56-17.28 523.56-21.60L523.56-21.60Q523.56-25.56 521.70-28.62Q519.84-31.68 514.62-34.26Q509.40-36.84 499.20-39.36L499.20-39.36Q489.36-41.88 483.54-44.88Q477.72-47.88 475.14-52.20Q472.56-56.52 472.56-62.88L472.56-62.88Q472.56-70.08 475.98-75.54Q479.40-81 485.76-84.06Q492.12-87.12 500.88-87.12L500.88-87.12Q510.24-87.12 516.96-83.58Q523.68-80.04 527.64-73.92Q531.60-67.80 532.56-60L532.56-60L521.76-59.28Q521.04-64.44 518.46-68.46Q515.88-72.48 511.44-74.76Q507-77.04 500.64-77.04L500.64-77.04Q492.72-77.04 488.04-73.26Q483.36-69.48 483.36-63.36L483.36-63.36Q483.36-59.40 485.22-56.82Q487.08-54.24 491.88-52.26Q496.68-50.28 505.68-48L505.68-48Q516.36-45.36 522.66-41.70Q528.96-38.04 531.66-33.24Q534.36-28.44 534.36-22.32L534.36-22.32Q534.36-14.88 530.52-9.42Q526.68-3.96 519.96-1.02Q513.24 1.92 504.48 1.92Z" fill="#FFFFFF"/></svg>
